<?xml version="1.0" encoding="UTF-8" standalone="no"?>
<svg
   xmlns:dc="http://purl.org/dc/elements/1.1/"
   xmlns:cc="http://creativecommons.org/ns#"
   xmlns:rdf="http://www.w3.org/1999/02/22-rdf-syntax-ns#"
   xmlns:svg="http://www.w3.org/2000/svg"
   xmlns="http://www.w3.org/2000/svg"
   xmlns:sodipodi="http://sodipodi.sourceforge.net/DTD/sodipodi-0.dtd"
   xmlns:inkscape="http://www.inkscape.org/namespaces/inkscape"
   sodipodi:docname="writing-logo.svg"
   inkscape:version="1.0 (4035a4f, 2020-05-01)"
   id="svg8"
   version="1.1"
   viewBox="0 0 71.437496 15.875"
   height="60"
   width="270">
  <defs
     id="defs2">
    <rect
       x="16.892086"
       y="1.7999764"
       width="52.891614"
       height="12.599835"
       id="rect925" />
    <rect
       id="rect866"
       height="12.837923"
       width="56.862197"
       y="1.9772678"
       x="13.475343" />
    <clipPath
       clipPathUnits="userSpaceOnUse"
       id="clipPath960">
      <rect
         style="fill:#00c1ae;fill-opacity:0.4;stroke:none;stroke-width:264.583"
         id="rect962"
         width="4.98455"
         height="8.3075838"
         x="61.614578"
         y="23.261232" />
    </clipPath>
  </defs>
  <sodipodi:namedview
     inkscape:window-maximized="0"
     inkscape:window-y="25"
     inkscape:window-x="229"
     inkscape:window-height="943"
     inkscape:window-width="1252"
     units="px"
     showgrid="false"
     inkscape:document-rotation="0"
     inkscape:current-layer="layer1"
     inkscape:document-units="mm"
     inkscape:cy="85.698063"
     inkscape:cx="100.38356"
     inkscape:zoom="1.7761196"
     inkscape:pageshadow="2"
     inkscape:pageopacity="0.0"
     borderopacity="1.0"
     bordercolor="#666666"
     pagecolor="#ffffff"
     id="base"
     inkscape:snap-global="false" />
  <metadata
     id="metadata5">
    <rdf:RDF>
      <cc:Work
         rdf:about="">
        <dc:format>image/svg+xml</dc:format>
        <dc:type
           rdf:resource="http://purl.org/dc/dcmitype/StillImage" />
        <dc:title />
      </cc:Work>
    </rdf:RDF>
  </metadata>
  <g
     id="layer1"
     inkscape:groupmode="layer"
     inkscape:label="Layer 1">
    <g
       transform="matrix(0.02262113,0,0,-0.02262113,0.69440479,14.893933)"
       fill="#000000"
       stroke="none"
       id="g853">
      <path
         sodipodi:nodetypes="scsscscccccssscsccccscc"
         d="M 565,571 C 559,565 514,550 464,537 352,507 308,486 268,446 239,417 180,308 180,284 c 0,-7 30,18 68,55 65,64 181,141 212,141 8,0 -9,-16 -39,-36 C 332,384 214,263 145,162 110,109 82,65 84,63 c 11,-12 44,19 81,77 43,67 43,67 139,104 100,39 125,56 82,56 -14,0 -26,5 -26,10 0,6 22,10 50,10 47,0 50,2 80,44 16,25 30,47 30,50 0,3 -17,6 -37,8 l -38,4 48,14 c 44,13 48,18 67,68 21,56 23,81 5,63 z M 408,360 c -559.05451,293.17637 -279.52726,146.58818 0,0 z"
         id="path849" />
      <path
         d="m 423,208 c -44,-21 -29,-42 46,-69 25,-8 46,-20 48,-26 C 523,96 485,90 323,83 239,80 170,73 170,69 170,56 280,47 390,52 c 122,6 173,25 168,61 -2,17 -16,26 -65,42 -35,10 -63,22 -63,26 0,8 52,19 91,19 16,0 29,5 29,10 0,13 -99,12 -127,-2 z"
         id="path851" />
    </g>
    <text
       style="fill:black;fill-opacity:1;line-height:1.25;stroke:none;font-family:caveat;font-style:normal;font-weight:normal;font-size:10.58333333000000032px;white-space:pre;shape-inside:url(#rect866);-inkscape-font-specification:caveat;font-stretch:normal;font-variant:normal;"
       id="text864"
       xml:space="preserve" />
    <text
       xml:space="preserve"
       id="text923"
       style="fill:black;fill-opacity:1;line-height:1.25;stroke:none;font-family:sans-serif;font-style:normal;font-weight:normal;font-size:10.58333333000000032px;white-space:pre;shape-inside:url(#rect925);" />
    <path
       style="fill:#00c1ae;fill-opacity:0.4;stroke:none;stroke-width:0.264583px;stroke-linecap:butt;stroke-linejoin:miter;stroke-opacity:1"
       d="M 18.968982,7.3383652 31.568816,5.3362611 49.376806,3.4511381 62.445333,2.3538153 c 5.306126,-0.081207 5.052838,1.7251867 4.430713,7.1999059 L 18.968982,12.876754 Z"
       id="path935"
       sodipodi:nodetypes="ccccccc" />
    <text
       xml:space="preserve"
       style="font-size:14.1111px;line-height:1.25;font-family:Caveat;-inkscape-font-specification:Caveat;stroke-width:0.264583"
       x="17.861303"
       y="12.045996"
       id="text931"><tspan
         sodipodi:role="line"
         id="tspan929"
         x="17.861303"
         y="12.045996"
         style="font-size:14.1111px;stroke-width:0.264583">Samuel Do</tspan></text>
    <path
       sodipodi:nodetypes="cccccc"
       id="path935-7"
       d="m 16.564323,28.661162 c 10.048992,-2.143135 20.264018,-3.047127 30.461138,-4.153791 l 13.015214,-0.830759 c 5.612738,0.707226 5.052838,1.725187 4.430712,7.199906 l -47.907064,3.323033 z"
       style="fill:#00c1ae;fill-opacity:0.07;stroke:none;stroke-width:0.26458300000000001px;stroke-linecap:butt;stroke-linejoin:miter;stroke-opacity:1"
       clip-path="url(#clipPath960)"
       transform="matrix(0.6050374,0,0,0.98004066,27.808432,-20.776361)" />
  </g>
</svg>
